<?xml version="1.0" standalone="no"?>
<!DOCTYPE svg PUBLIC "-//W3C//DTD SVG 20010904//EN"
 "http://www.w3.org/TR/2001/REC-SVG-20010904/DTD/svg10.dtd">
<svg version="1.0" xmlns="http://www.w3.org/2000/svg"
 width="1093.000000pt" height="1093.000000pt" viewBox="0 0 1093.000000 1093.000000"
 preserveAspectRatio="xMidYMid meet">
<metadata>
Created by potrace 1.11, written by Peter Selinger 2001-2013
</metadata>
<g transform="translate(0.000000,1093.000000) scale(0.100000,-0.100000)"
fill="#000000" stroke="none">
<path d="M277 9202 l-37 -3 2 -1592 3 -1592 5219 0 5219 0 1 1583 c1 871 -2
1589 -5 1594 -5 7 -1646 11 -5185 12 -2849 0 -5196 0 -5217 -2z"/>
<path d="M5339 5296 c-2 -2 -37 -6 -77 -10 -179 -15 -408 -82 -587 -172 -60
-30 -119 -60 -130 -67 -266 -162 -446 -345 -632 -642 -48 -77 -129 -268 -168
-397 -80 -265 -92 -608 -29 -878 3 -14 9 -41 14 -60 16 -70 53 -177 93 -270
135 -313 364 -584 664 -786 165 -111 468 -232 648 -258 23 -4 52 -9 65 -11
114 -23 410 -23 520 0 14 3 39 7 55 9 51 7 167 35 235 58 271 87 505 232 711
437 296 296 473 665 516 1076 9 85 9 296 0 384 -51 495 -331 970 -745 1261
-220 156 -518 278 -742 305 -25 3 -56 8 -70 11 -30 6 -335 16 -341 10z"/>
</g>
</svg>
